<svg width="40" height="40" viewBox="0 0 40 40" fill="none" xmlns="http://www.w3.org/2000/svg">
<rect x="0.5" y="0.5" width="39" height="39" rx="19.5" fill="#2765E0" fill-opacity="0.1"/>
<rect x="0.5" y="0.5" width="39" height="39" rx="19.5" stroke="#2765E0"/>
<path d="M24.2427 22.8995L20 27L15.7574 22.8995C13.4142 20.6348 13.4142 16.9631 15.7574 14.6985C18.1005 12.4338 21.8995 12.4338 24.2427 14.6985C26.5858 16.9631 26.5858 20.6348 24.2427 22.8995ZM20 20.0877C20.7364 20.0877 21.3333 19.5107 21.3333 18.799C21.3333 18.0873 20.7364 17.5103 20 17.5103C19.2636 17.5103 18.6667 18.0873 18.6667 18.799C18.6667 19.5107 19.2636 20.0877 20 20.0877Z" fill="#2765E0"/>
</svg>
