<svg width="110" height="33" viewBox="0 0 110 33" fill="none" xmlns="http://www.w3.org/2000/svg">
<rect x="0.5" y="0.5" width="109" height="32" rx="16" stroke="url(#paint0_linear_66_1339)" stroke-opacity="0.5"/>
<path d="M17.5435 21V11.004H25.0475V21H23.8015V12.11H18.8035V21H17.5435ZM34.1398 17.234C34.1398 17.8593 34.0558 18.4147 33.8878 18.9C33.7291 19.376 33.4958 19.782 33.1878 20.118C32.8891 20.454 32.5204 20.7107 32.0818 20.888C31.6524 21.056 31.1718 21.14 30.6398 21.14C30.1451 21.14 29.6878 21.056 29.2678 20.888C28.8478 20.7107 28.4838 20.454 28.1758 20.118C27.8678 19.782 27.6251 19.376 27.4478 18.9C27.2798 18.4147 27.1958 17.8593 27.1958 17.234C27.1958 16.4033 27.3358 15.7033 27.6158 15.134C27.8958 14.5553 28.2971 14.1167 28.8198 13.818C29.3424 13.51 29.9631 13.356 30.6818 13.356C31.3631 13.356 31.9604 13.51 32.4738 13.818C32.9964 14.1167 33.4024 14.5553 33.6918 15.134C33.9904 15.7033 34.1398 16.4033 34.1398 17.234ZM28.4698 17.234C28.4698 17.822 28.5444 18.3353 28.6938 18.774C28.8524 19.2033 29.0951 19.5347 29.4218 19.768C29.7484 20.0013 30.1638 20.118 30.6678 20.118C31.1718 20.118 31.5871 20.0013 31.9138 19.768C32.2404 19.5347 32.4784 19.2033 32.6278 18.774C32.7864 18.3353 32.8658 17.822 32.8658 17.234C32.8658 16.6367 32.7864 16.128 32.6278 15.708C32.4691 15.288 32.2264 14.966 31.8998 14.742C31.5824 14.5087 31.1671 14.392 30.6538 14.392C29.8884 14.392 29.3331 14.644 28.9878 15.148C28.6424 15.652 28.4698 16.3473 28.4698 17.234ZM37.0336 16.226C37.0336 16.6647 37.155 16.9913 37.3976 17.206C37.6496 17.4113 38.009 17.514 38.4756 17.514C38.9423 17.514 39.367 17.444 39.7496 17.304C40.1323 17.1547 40.5243 16.9587 40.9256 16.716V13.496H42.1576V21H40.9256V17.654C40.5056 17.9247 40.0903 18.1393 39.6796 18.298C39.2783 18.4473 38.793 18.522 38.2236 18.522C37.4583 18.522 36.861 18.3213 36.4316 17.92C36.0116 17.5187 35.8016 16.982 35.8016 16.31V13.496H37.0336V16.226ZM47.4396 13.356C48.0836 13.356 48.6342 13.496 49.0916 13.776C49.5582 14.056 49.9129 14.4527 50.1556 14.966C50.4076 15.47 50.5336 16.0627 50.5336 16.744V17.486H45.3956C45.4142 18.3353 45.6289 18.984 46.0396 19.432C46.4596 19.8707 47.0429 20.09 47.7896 20.09C48.2656 20.09 48.6856 20.048 49.0496 19.964C49.4229 19.8707 49.8056 19.74 50.1976 19.572V20.65C49.8149 20.818 49.4369 20.9393 49.0636 21.014C48.6902 21.098 48.2469 21.14 47.7336 21.14C47.0242 21.14 46.3942 20.9953 45.8436 20.706C45.3022 20.4167 44.8776 19.9873 44.5696 19.418C44.2709 18.8393 44.1216 18.1347 44.1216 17.304C44.1216 16.4827 44.2569 15.778 44.5276 15.19C44.8076 14.602 45.1949 14.1493 45.6896 13.832C46.1936 13.5147 46.7769 13.356 47.4396 13.356ZM47.4256 14.364C46.8376 14.364 46.3709 14.5553 46.0256 14.938C45.6896 15.3113 45.4889 15.834 45.4236 16.506H49.2456C49.2456 16.0767 49.1802 15.7033 49.0496 15.386C48.9189 15.0687 48.7182 14.8213 48.4476 14.644C48.1862 14.4573 47.8456 14.364 47.4256 14.364ZM60.4939 13.496V21H59.3879V16.212C59.3879 16.016 59.3926 15.8107 59.4019 15.596C59.4206 15.3813 59.4392 15.1713 59.4579 14.966H59.4159L56.9659 21H55.9299L53.5499 14.966H53.5079C53.5266 15.1713 53.5359 15.3813 53.5359 15.596C53.5452 15.8107 53.5499 16.03 53.5499 16.254V21H52.4439V13.496H54.0819L56.4479 19.53L58.8559 13.496H60.4939ZM61.7132 13.496H63.0292L64.6532 17.766C64.7466 18.018 64.8306 18.2607 64.9052 18.494C64.9892 18.7273 65.0639 18.956 65.1292 19.18C65.1946 19.3947 65.2459 19.6047 65.2832 19.81H65.3392C65.3952 19.5767 65.4839 19.2733 65.6052 18.9C65.7266 18.5173 65.8526 18.1347 65.9832 17.752L67.5092 13.496H68.8392L65.6052 22.036C65.4279 22.5027 65.2179 22.9087 64.9752 23.254C64.7419 23.6087 64.4526 23.8793 64.1072 24.066C63.7712 24.262 63.3606 24.36 62.8752 24.36C62.6512 24.36 62.4552 24.346 62.2872 24.318C62.1192 24.2993 61.9746 24.276 61.8532 24.248V23.268C61.9559 23.2867 62.0772 23.3053 62.2172 23.324C62.3666 23.3427 62.5206 23.352 62.6792 23.352C62.9686 23.352 63.2159 23.296 63.4212 23.184C63.6359 23.0813 63.8179 22.9273 63.9672 22.722C64.1166 22.526 64.2426 22.2927 64.3452 22.022L64.7372 21.028L61.7132 13.496ZM81.7127 13.496V21H80.6067V16.212C80.6067 16.016 80.6113 15.8107 80.6207 15.596C80.6393 15.3813 80.658 15.1713 80.6767 14.966H80.6347L78.1847 21H77.1487L74.7687 14.966H74.7267C74.7453 15.1713 74.7547 15.3813 74.7547 15.596C74.764 15.8107 74.7687 16.03 74.7687 16.254V21H73.6627V13.496H75.3007L77.6667 19.53L80.0747 13.496H81.7127ZM84.108 21V13.496H85.34V16.576H87.286C87.9393 16.576 88.476 16.6553 88.896 16.814C89.316 16.9727 89.6286 17.2107 89.834 17.528C90.0393 17.836 90.142 18.228 90.142 18.704C90.142 19.1707 90.0393 19.5767 89.834 19.922C89.638 20.2673 89.3253 20.5333 88.896 20.72C88.476 20.9067 87.9206 21 87.23 21H84.108ZM87.118 20.006C87.65 20.006 88.084 19.9173 88.42 19.74C88.756 19.5533 88.924 19.2313 88.924 18.774C88.924 18.3167 88.77 18.0087 88.462 17.85C88.154 17.682 87.7106 17.598 87.132 17.598H85.34V20.006H87.118ZM91.388 21V13.496H92.62V21H91.388Z" fill="#10141F"/>
<defs>
<linearGradient id="paint0_linear_66_1339" x1="3.04266" y1="-34.9286" x2="21.2947" y2="48.2698" gradientUnits="userSpaceOnUse">
<stop stop-color="white"/>
<stop offset="1" stop-color="#CBD0DB"/>
</linearGradient>
</defs>
</svg>
