<svg width="81" height="33" viewBox="0 0 81 33" fill="none" xmlns="http://www.w3.org/2000/svg">
<rect x="0.5" y="0.5" width="80" height="32" rx="16" stroke="url(#paint0_linear_49_2160)" stroke-opacity="0.3"/>
<path d="M24.047 21L22.843 17.906H18.881L17.691 21H16.417L20.323 10.962H21.457L25.349 21H24.047ZM21.345 13.762C21.317 13.6873 21.2703 13.552 21.205 13.356C21.1397 13.16 21.0743 12.9593 21.009 12.754C20.953 12.5393 20.9063 12.376 20.869 12.264C20.8223 12.4507 20.771 12.642 20.715 12.838C20.6683 13.0247 20.617 13.1973 20.561 13.356C20.5143 13.5147 20.4723 13.65 20.435 13.762L19.301 16.786H22.465L21.345 13.762ZM32.1204 13.496V19.964H33.2124V23.604H32.0224V21H26.8004V23.604H25.6244V19.964H26.2264C26.6557 19.3667 27.0104 18.718 27.2904 18.018C27.5797 17.3087 27.7944 16.5713 27.9344 15.806C28.0837 15.0313 28.1631 14.2613 28.1724 13.496H32.1204ZM29.2644 14.462C29.2271 15.0967 29.1291 15.7547 28.9704 16.436C28.8117 17.108 28.6064 17.752 28.3544 18.368C28.1117 18.984 27.8271 19.516 27.5004 19.964H30.9304V14.462H29.2644ZM38.2532 13.356C39.1772 13.356 39.9192 13.678 40.4792 14.322C41.0485 14.966 41.3332 15.9367 41.3332 17.234C41.3332 18.0833 41.2025 18.802 40.9412 19.39C40.6892 19.9687 40.3298 20.4073 39.8632 20.706C39.4058 20.9953 38.8645 21.14 38.2392 21.14C37.8565 21.14 37.5158 21.0887 37.2172 20.986C36.9185 20.8833 36.6618 20.7527 36.4472 20.594C36.2418 20.426 36.0645 20.244 35.9152 20.048H35.8312C35.8498 20.2067 35.8685 20.4073 35.8872 20.65C35.9058 20.8927 35.9152 21.1027 35.9152 21.28V24.36H34.6832V13.496H35.6912L35.8592 14.518H35.9152C36.0645 14.3033 36.2418 14.1073 36.4472 13.93C36.6618 13.7527 36.9138 13.6127 37.2032 13.51C37.5018 13.4073 37.8518 13.356 38.2532 13.356ZM38.0292 14.392C37.5252 14.392 37.1192 14.49 36.8112 14.686C36.5032 14.8727 36.2792 15.1573 36.1392 15.54C35.9992 15.9227 35.9245 16.408 35.9152 16.996V17.234C35.9152 17.85 35.9805 18.3727 36.1112 18.802C36.2418 19.2313 36.4612 19.558 36.7692 19.782C37.0865 20.006 37.5158 20.118 38.0572 20.118C38.5145 20.118 38.8878 19.992 39.1772 19.74C39.4758 19.488 39.6952 19.1473 39.8352 18.718C39.9845 18.2793 40.0592 17.78 40.0592 17.22C40.0592 16.3613 39.8912 15.6753 39.5552 15.162C39.2285 14.6487 38.7198 14.392 38.0292 14.392ZM46.1944 13.356C46.8384 13.356 47.3891 13.496 47.8464 13.776C48.3131 14.056 48.6678 14.4527 48.9104 14.966C49.1624 15.47 49.2884 16.0627 49.2884 16.744V17.486H44.1504C44.1691 18.3353 44.3838 18.984 44.7944 19.432C45.2144 19.8707 45.7978 20.09 46.5444 20.09C47.0204 20.09 47.4404 20.048 47.8044 19.964C48.1778 19.8707 48.5604 19.74 48.9524 19.572V20.65C48.5698 20.818 48.1918 20.9393 47.8184 21.014C47.4451 21.098 47.0018 21.14 46.4884 21.14C45.7791 21.14 45.1491 20.9953 44.5984 20.706C44.0571 20.4167 43.6324 19.9873 43.3244 19.418C43.0258 18.8393 42.8764 18.1347 42.8764 17.304C42.8764 16.4827 43.0118 15.778 43.2824 15.19C43.5624 14.602 43.9498 14.1493 44.4444 13.832C44.9484 13.5147 45.5318 13.356 46.1944 13.356ZM46.1804 14.364C45.5924 14.364 45.1258 14.5553 44.7804 14.938C44.4444 15.3113 44.2438 15.834 44.1784 16.506H48.0004C48.0004 16.0767 47.9351 15.7033 47.8044 15.386C47.6738 15.0687 47.4731 14.8213 47.2024 14.644C46.9411 14.4573 46.6004 14.364 46.1804 14.364ZM54.2088 21.14C53.5461 21.14 52.9535 21.0047 52.4308 20.734C51.9175 20.4633 51.5115 20.0433 51.2128 19.474C50.9235 18.9047 50.7788 18.1767 50.7788 17.29C50.7788 16.366 50.9328 15.6147 51.2408 15.036C51.5488 14.4573 51.9641 14.0327 52.4868 13.762C53.0188 13.4913 53.6208 13.356 54.2928 13.356C54.6755 13.356 55.0441 13.398 55.3988 13.482C55.7535 13.5567 56.0428 13.65 56.2668 13.762L55.8888 14.784C55.6648 14.7 55.4035 14.6207 55.1048 14.546C54.8061 14.4713 54.5261 14.434 54.2648 14.434C53.7608 14.434 53.3455 14.5413 53.0188 14.756C52.6921 14.9707 52.4495 15.288 52.2908 15.708C52.1321 16.128 52.0528 16.6507 52.0528 17.276C52.0528 17.8733 52.1321 18.382 52.2908 18.802C52.4495 19.222 52.6875 19.5393 53.0048 19.754C53.3221 19.9687 53.7188 20.076 54.1948 20.076C54.6055 20.076 54.9648 20.034 55.2728 19.95C55.5901 19.866 55.8795 19.7633 56.1408 19.642V20.734C55.8888 20.8647 55.6088 20.9627 55.3008 21.028C55.0021 21.1027 54.6381 21.14 54.2088 21.14ZM60.7674 13.37C61.682 13.37 62.3587 13.5707 62.7974 13.972C63.236 14.3733 63.4554 15.0127 63.4554 15.89V21H62.5594L62.3214 19.936H62.2654C62.0507 20.2067 61.8267 20.4353 61.5934 20.622C61.3694 20.7993 61.108 20.93 60.8094 21.014C60.52 21.098 60.1654 21.14 59.7454 21.14C59.2974 21.14 58.8914 21.0607 58.5274 20.902C58.1727 20.7433 57.8927 20.5007 57.6874 20.174C57.482 19.838 57.3794 19.418 57.3794 18.914C57.3794 18.1673 57.6734 17.5933 58.2614 17.192C58.8494 16.7813 59.7547 16.5573 60.9774 16.52L62.2514 16.478V16.03C62.2514 15.4047 62.116 14.9707 61.8454 14.728C61.5747 14.4853 61.192 14.364 60.6974 14.364C60.3054 14.364 59.932 14.4247 59.5774 14.546C59.2227 14.658 58.8914 14.7887 58.5834 14.938L58.2054 14.014C58.532 13.8367 58.9194 13.6873 59.3674 13.566C59.8154 13.4353 60.282 13.37 60.7674 13.37ZM61.1314 17.374C60.198 17.4113 59.5494 17.5607 59.1854 17.822C58.8307 18.0833 58.6534 18.452 58.6534 18.928C58.6534 19.348 58.7794 19.656 59.0314 19.852C59.2927 20.048 59.624 20.146 60.0254 20.146C60.66 20.146 61.1874 19.9733 61.6074 19.628C62.0274 19.2733 62.2374 18.732 62.2374 18.004V17.332L61.1314 17.374Z" fill="white"/>
<defs>
<linearGradient id="paint0_linear_49_2160" x1="76.6084" y1="33" x2="4.9951" y2="18.2859" gradientUnits="userSpaceOnUse">
<stop stop-color="#CBD0DB"/>
<stop offset="1" stop-color="#10141F"/>
</linearGradient>
</defs>
</svg>
