<svg width="146" height="33" viewBox="0 0 146 33" fill="none" xmlns="http://www.w3.org/2000/svg">
<rect x="0.5" y="0.5" width="145" height="32" rx="16" stroke="url(#paint0_linear_77_956)" stroke-opacity="0.3"/>
<path d="M17.7906 21V11.004H25.2946V21H24.0486V12.11H19.0506V21H17.7906ZM31.4329 13.356C32.3569 13.356 33.0989 13.678 33.6589 14.322C34.2282 14.966 34.5129 15.9367 34.5129 17.234C34.5129 18.0833 34.3822 18.802 34.1209 19.39C33.8689 19.9687 33.5095 20.4073 33.0429 20.706C32.5855 20.9953 32.0442 21.14 31.4189 21.14C31.0362 21.14 30.6955 21.0887 30.3969 20.986C30.0982 20.8833 29.8415 20.7527 29.6269 20.594C29.4215 20.426 29.2442 20.244 29.0949 20.048H29.0109C29.0295 20.2067 29.0482 20.4073 29.0669 20.65C29.0855 20.8927 29.0949 21.1027 29.0949 21.28V24.36H27.8629V13.496H28.8709L29.0389 14.518H29.0949C29.2442 14.3033 29.4215 14.1073 29.6269 13.93C29.8415 13.7527 30.0935 13.6127 30.3829 13.51C30.6815 13.4073 31.0315 13.356 31.4329 13.356ZM31.2089 14.392C30.7049 14.392 30.2989 14.49 29.9909 14.686C29.6829 14.8727 29.4589 15.1573 29.3189 15.54C29.1789 15.9227 29.1042 16.408 29.0949 16.996V17.234C29.0949 17.85 29.1602 18.3727 29.2909 18.802C29.4215 19.2313 29.6409 19.558 29.9489 19.782C30.2662 20.006 30.6955 20.118 31.2369 20.118C31.6942 20.118 32.0675 19.992 32.3569 19.74C32.6555 19.488 32.8749 19.1473 33.0149 18.718C33.1642 18.2793 33.2389 17.78 33.2389 17.22C33.2389 16.3613 33.0709 15.6753 32.7349 15.162C32.4082 14.6487 31.8995 14.392 31.2089 14.392ZM43.0001 17.234C43.0001 17.8593 42.9161 18.4147 42.7481 18.9C42.5895 19.376 42.3561 19.782 42.0481 20.118C41.7495 20.454 41.3808 20.7107 40.9421 20.888C40.5128 21.056 40.0321 21.14 39.5001 21.14C39.0055 21.14 38.5481 21.056 38.1281 20.888C37.7081 20.7107 37.3441 20.454 37.0361 20.118C36.7281 19.782 36.4855 19.376 36.3081 18.9C36.1401 18.4147 36.0561 17.8593 36.0561 17.234C36.0561 16.4033 36.1961 15.7033 36.4761 15.134C36.7561 14.5553 37.1575 14.1167 37.6801 13.818C38.2028 13.51 38.8235 13.356 39.5421 13.356C40.2235 13.356 40.8208 13.51 41.3341 13.818C41.8568 14.1167 42.2628 14.5553 42.5521 15.134C42.8508 15.7033 43.0001 16.4033 43.0001 17.234ZM37.3301 17.234C37.3301 17.822 37.4048 18.3353 37.5541 18.774C37.7128 19.2033 37.9555 19.5347 38.2821 19.768C38.6088 20.0013 39.0241 20.118 39.5281 20.118C40.0321 20.118 40.4475 20.0013 40.7741 19.768C41.1008 19.5347 41.3388 19.2033 41.4881 18.774C41.6468 18.3353 41.7261 17.822 41.7261 17.234C41.7261 16.6367 41.6468 16.128 41.4881 15.708C41.3295 15.288 41.0868 14.966 40.7601 14.742C40.4428 14.5087 40.0275 14.392 39.5141 14.392C38.7488 14.392 38.1935 14.644 37.8481 15.148C37.5028 15.652 37.3301 16.3473 37.3301 17.234ZM52.3587 23.604H51.1547V21H44.9527V13.496H46.1847V19.964H50.0627V13.496H51.2947V19.978H52.3587V23.604ZM56.6964 13.356C57.3404 13.356 57.8911 13.496 58.3484 13.776C58.8151 14.056 59.1697 14.4527 59.4124 14.966C59.6644 15.47 59.7904 16.0627 59.7904 16.744V17.486H54.6524C54.6711 18.3353 54.8857 18.984 55.2964 19.432C55.7164 19.8707 56.2997 20.09 57.0464 20.09C57.5224 20.09 57.9424 20.048 58.3064 19.964C58.6797 19.8707 59.0624 19.74 59.4544 19.572V20.65C59.0717 20.818 58.6937 20.9393 58.3204 21.014C57.9471 21.098 57.5037 21.14 56.9904 21.14C56.2811 21.14 55.6511 20.9953 55.1004 20.706C54.5591 20.4167 54.1344 19.9873 53.8264 19.418C53.5277 18.8393 53.3784 18.1347 53.3784 17.304C53.3784 16.4827 53.5137 15.778 53.7844 15.19C54.0644 14.602 54.4517 14.1493 54.9464 13.832C55.4504 13.5147 56.0337 13.356 56.6964 13.356ZM56.6824 14.364C56.0944 14.364 55.6277 14.5553 55.2824 14.938C54.9464 15.3113 54.7457 15.834 54.6804 16.506H58.5024C58.5024 16.0767 58.4371 15.7033 58.3064 15.386C58.1757 15.0687 57.9751 14.8213 57.7044 14.644C57.4431 14.4573 57.1024 14.364 56.6824 14.364ZM64.7107 21.14C64.0481 21.14 63.4554 21.0047 62.9327 20.734C62.4194 20.4633 62.0134 20.0433 61.7147 19.474C61.4254 18.9047 61.2807 18.1767 61.2807 17.29C61.2807 16.366 61.4347 15.6147 61.7427 15.036C62.0507 14.4573 62.4661 14.0327 62.9887 13.762C63.5207 13.4913 64.1227 13.356 64.7947 13.356C65.1774 13.356 65.5461 13.398 65.9007 13.482C66.2554 13.5567 66.5447 13.65 66.7687 13.762L66.3907 14.784C66.1667 14.7 65.9054 14.6207 65.6067 14.546C65.3081 14.4713 65.0281 14.434 64.7667 14.434C64.2627 14.434 63.8474 14.5413 63.5207 14.756C63.1941 14.9707 62.9514 15.288 62.7927 15.708C62.6341 16.128 62.5547 16.6507 62.5547 17.276C62.5547 17.8733 62.6341 18.382 62.7927 18.802C62.9514 19.222 63.1894 19.5393 63.5067 19.754C63.8241 19.9687 64.2207 20.076 64.6967 20.076C65.1074 20.076 65.4667 20.034 65.7747 19.95C66.0921 19.866 66.3814 19.7633 66.6427 19.642V20.734C66.3907 20.8647 66.1107 20.9627 65.8027 21.028C65.5041 21.1027 65.1401 21.14 64.7107 21.14ZM71.4373 21.14C70.7746 21.14 70.182 21.0047 69.6593 20.734C69.146 20.4633 68.74 20.0433 68.4413 19.474C68.152 18.9047 68.0073 18.1767 68.0073 17.29C68.0073 16.366 68.1613 15.6147 68.4693 15.036C68.7773 14.4573 69.1926 14.0327 69.7153 13.762C70.2473 13.4913 70.8493 13.356 71.5213 13.356C71.904 13.356 72.2726 13.398 72.6273 13.482C72.982 13.5567 73.2713 13.65 73.4953 13.762L73.1173 14.784C72.8933 14.7 72.632 14.6207 72.3333 14.546C72.0346 14.4713 71.7546 14.434 71.4933 14.434C70.9893 14.434 70.574 14.5413 70.2473 14.756C69.9206 14.9707 69.678 15.288 69.5193 15.708C69.3606 16.128 69.2813 16.6507 69.2813 17.276C69.2813 17.8733 69.3606 18.382 69.5193 18.802C69.678 19.222 69.916 19.5393 70.2333 19.754C70.5506 19.9687 70.9473 20.076 71.4233 20.076C71.834 20.076 72.1933 20.034 72.5013 19.95C72.8186 19.866 73.108 19.7633 73.3693 19.642V20.734C73.1173 20.8647 72.8373 20.9627 72.5293 21.028C72.2306 21.1027 71.8666 21.14 71.4373 21.14ZM85.3146 17.234C85.3146 17.8593 85.2306 18.4147 85.0626 18.9C84.9039 19.376 84.6706 19.782 84.3626 20.118C84.0639 20.454 83.6953 20.7107 83.2566 20.888C82.8273 21.056 82.3466 21.14 81.8146 21.14C81.3199 21.14 80.8626 21.056 80.4426 20.888C80.0226 20.7107 79.6586 20.454 79.3506 20.118C79.0426 19.782 78.7999 19.376 78.6226 18.9C78.4546 18.4147 78.3706 17.8593 78.3706 17.234C78.3706 16.4033 78.5106 15.7033 78.7906 15.134C79.0706 14.5553 79.4719 14.1167 79.9946 13.818C80.5173 13.51 81.1379 13.356 81.8566 13.356C82.5379 13.356 83.1353 13.51 83.6486 13.818C84.1713 14.1167 84.5773 14.5553 84.8666 15.134C85.1653 15.7033 85.3146 16.4033 85.3146 17.234ZM79.6446 17.234C79.6446 17.822 79.7193 18.3353 79.8686 18.774C80.0273 19.2033 80.2699 19.5347 80.5966 19.768C80.9233 20.0013 81.3386 20.118 81.8426 20.118C82.3466 20.118 82.7619 20.0013 83.0886 19.768C83.4153 19.5347 83.6533 19.2033 83.8026 18.774C83.9613 18.3353 84.0406 17.822 84.0406 17.234C84.0406 16.6367 83.9613 16.128 83.8026 15.708C83.6439 15.288 83.4013 14.966 83.0746 14.742C82.7573 14.5087 82.3419 14.392 81.8286 14.392C81.0633 14.392 80.5079 14.644 80.1626 15.148C79.8173 15.652 79.6446 16.3473 79.6446 17.234ZM86.8751 16.492C86.8751 15.4 86.9825 14.4713 87.1971 13.706C87.4211 12.9313 87.7618 12.3153 88.2191 11.858C88.6858 11.3913 89.2831 11.0787 90.0111 10.92C90.6178 10.7893 91.2105 10.6727 91.7891 10.57C92.3678 10.4673 92.9091 10.374 93.4131 10.29L93.6231 11.368C93.3805 11.4053 93.1098 11.452 92.8111 11.508C92.5125 11.5547 92.2091 11.606 91.9011 11.662C91.5931 11.7087 91.2945 11.76 91.0051 11.816C90.7251 11.8627 90.4778 11.9093 90.2631 11.956C89.9551 12.0213 89.6798 12.1333 89.4371 12.292C89.1945 12.4413 88.9845 12.6467 88.8071 12.908C88.6391 13.1693 88.5038 13.4913 88.4011 13.874C88.2985 14.2567 88.2378 14.7093 88.2191 15.232H88.3031C88.4338 15.0547 88.6111 14.8727 88.8351 14.686C89.0685 14.4993 89.3438 14.3407 89.6611 14.21C89.9878 14.0793 90.3565 14.014 90.7671 14.014C91.4205 14.014 91.9618 14.1587 92.3911 14.448C92.8298 14.728 93.1565 15.12 93.3711 15.624C93.5951 16.128 93.7071 16.716 93.7071 17.388C93.7071 18.2187 93.5625 18.914 93.2731 19.474C92.9838 20.034 92.5825 20.454 92.0691 20.734C91.5558 21.0047 90.9585 21.14 90.2771 21.14C89.7638 21.14 89.2971 21.042 88.8771 20.846C88.4571 20.6407 88.0978 20.342 87.7991 19.95C87.5005 19.558 87.2718 19.0727 87.1131 18.494C86.9545 17.9153 86.8751 17.248 86.8751 16.492ZM90.3751 20.118C90.7858 20.118 91.1405 20.034 91.4391 19.866C91.7471 19.698 91.9851 19.4227 92.1531 19.04C92.3211 18.6573 92.4051 18.1487 92.4051 17.514C92.4051 16.7487 92.2605 16.1467 91.9711 15.708C91.6911 15.26 91.2245 15.036 90.5711 15.036C90.1605 15.036 89.7871 15.1293 89.4511 15.316C89.1151 15.4933 88.8351 15.6987 88.6111 15.932C88.3871 16.1653 88.2285 16.3613 88.1351 16.52C88.1351 16.9773 88.1678 17.4207 88.2331 17.85C88.2985 18.2793 88.4105 18.6667 88.5691 19.012C88.7371 19.348 88.9658 19.6187 89.2551 19.824C89.5538 20.02 89.9271 20.118 90.3751 20.118ZM103.698 13.496V21H102.592V16.212C102.592 16.016 102.597 15.8107 102.606 15.596C102.625 15.3813 102.643 15.1713 102.662 14.966H102.62L100.17 21H99.134L96.754 14.966H96.712C96.7307 15.1713 96.74 15.3813 96.74 15.596C96.7493 15.8107 96.754 16.03 96.754 16.254V21H95.648V13.496H97.286L99.652 19.53L102.06 13.496H103.698ZM108.991 13.356C109.635 13.356 110.186 13.496 110.643 13.776C111.11 14.056 111.465 14.4527 111.707 14.966C111.959 15.47 112.085 16.0627 112.085 16.744V17.486H106.947C106.966 18.3353 107.181 18.984 107.591 19.432C108.011 19.8707 108.595 20.09 109.341 20.09C109.817 20.09 110.237 20.048 110.601 19.964C110.975 19.8707 111.357 19.74 111.749 19.572V20.65C111.367 20.818 110.989 20.9393 110.615 21.014C110.242 21.098 109.799 21.14 109.285 21.14C108.576 21.14 107.946 20.9953 107.395 20.706C106.854 20.4167 106.429 19.9873 106.121 19.418C105.823 18.8393 105.673 18.1347 105.673 17.304C105.673 16.4827 105.809 15.778 106.079 15.19C106.359 14.602 106.747 14.1493 107.241 13.832C107.745 13.5147 108.329 13.356 108.991 13.356ZM108.977 14.364C108.389 14.364 107.923 14.5553 107.577 14.938C107.241 15.3113 107.041 15.834 106.975 16.506H110.797C110.797 16.0767 110.732 15.7033 110.601 15.386C110.471 15.0687 110.27 14.8213 109.999 14.644C109.738 14.4573 109.397 14.364 108.977 14.364ZM115.228 13.496V16.618H119.302V13.496H120.534V21H119.302V17.654H115.228V21H113.996V13.496H115.228ZM125.752 13.37C126.666 13.37 127.343 13.5707 127.782 13.972C128.22 14.3733 128.44 15.0127 128.44 15.89V21H127.544L127.306 19.936H127.25C127.035 20.2067 126.811 20.4353 126.578 20.622C126.354 20.7993 126.092 20.93 125.794 21.014C125.504 21.098 125.15 21.14 124.73 21.14C124.282 21.14 123.876 21.0607 123.512 20.902C123.157 20.7433 122.877 20.5007 122.672 20.174C122.466 19.838 122.364 19.418 122.364 18.914C122.364 18.1673 122.658 17.5933 123.246 17.192C123.834 16.7813 124.739 16.5573 125.962 16.52L127.236 16.478V16.03C127.236 15.4047 127.1 14.9707 126.83 14.728C126.559 14.4853 126.176 14.364 125.682 14.364C125.29 14.364 124.916 14.4247 124.562 14.546C124.207 14.658 123.876 14.7887 123.568 14.938L123.19 14.014C123.516 13.8367 123.904 13.6873 124.352 13.566C124.8 13.4353 125.266 13.37 125.752 13.37ZM126.116 17.374C125.182 17.4113 124.534 17.5607 124.17 17.822C123.815 18.0833 123.638 18.452 123.638 18.928C123.638 19.348 123.764 19.656 124.016 19.852C124.277 20.048 124.608 20.146 125.01 20.146C125.644 20.146 126.172 19.9733 126.592 19.628C127.012 19.2733 127.222 18.732 127.222 18.004V17.332L126.116 17.374Z" fill="white"/>
<defs>
<linearGradient id="paint0_linear_77_956" x1="138.084" y1="33" x2="19.7803" y2="-10.8134" gradientUnits="userSpaceOnUse">
<stop stop-color="#CBD0DB"/>
<stop offset="1" stop-color="#10141F"/>
</linearGradient>
</defs>
</svg>
