<svg width="154" height="33" viewBox="0 0 154 33" fill="none" xmlns="http://www.w3.org/2000/svg">
<rect x="0.5" y="0.5" width="153" height="32" rx="16" stroke="url(#paint0_linear_66_1390)" stroke-opacity="0.5"/>
<path d="M24.5742 21H23.3142V16.898C22.7728 17.0847 22.2642 17.2387 21.7882 17.36C21.3215 17.472 20.7988 17.528 20.2202 17.528C19.2868 17.528 18.5635 17.3133 18.0502 16.884C17.5368 16.4453 17.2802 15.8153 17.2802 14.994V11.004H18.5402V14.812C18.5402 15.3533 18.6802 15.7593 18.9602 16.03C19.2495 16.2913 19.7115 16.422 20.3462 16.422C20.8968 16.422 21.3915 16.3707 21.8302 16.268C22.2688 16.1653 22.7635 16.0253 23.3142 15.848V11.004H24.5742V21ZM32.3055 14.532H29.8555V21H28.6375V14.532H26.2155V13.496H32.3055V14.532ZM40.171 17.234C40.171 17.8593 40.087 18.4147 39.919 18.9C39.7604 19.376 39.527 19.782 39.219 20.118C38.9204 20.454 38.5517 20.7107 38.113 20.888C37.6837 21.056 37.203 21.14 36.671 21.14C36.1764 21.14 35.719 21.056 35.299 20.888C34.879 20.7107 34.515 20.454 34.207 20.118C33.899 19.782 33.6564 19.376 33.479 18.9C33.311 18.4147 33.227 17.8593 33.227 17.234C33.227 16.4033 33.367 15.7033 33.647 15.134C33.927 14.5553 34.3284 14.1167 34.851 13.818C35.3737 13.51 35.9944 13.356 36.713 13.356C37.3944 13.356 37.9917 13.51 38.505 13.818C39.0277 14.1167 39.4337 14.5553 39.723 15.134C40.0217 15.7033 40.171 16.4033 40.171 17.234ZM34.501 17.234C34.501 17.822 34.5757 18.3353 34.725 18.774C34.8837 19.2033 35.1264 19.5347 35.453 19.768C35.7797 20.0013 36.195 20.118 36.699 20.118C37.203 20.118 37.6184 20.0013 37.945 19.768C38.2717 19.5347 38.5097 19.2033 38.659 18.774C38.8177 18.3353 38.897 17.822 38.897 17.234C38.897 16.6367 38.8177 16.128 38.659 15.708C38.5004 15.288 38.2577 14.966 37.931 14.742C37.6137 14.5087 37.1984 14.392 36.685 14.392C35.9197 14.392 35.3644 14.644 35.019 15.148C34.6737 15.652 34.501 16.3473 34.501 17.234ZM52.2843 17.234C52.2843 17.8593 52.2003 18.4147 52.0323 18.9C51.8736 19.376 51.6403 19.782 51.3323 20.118C51.0336 20.454 50.665 20.7107 50.2263 20.888C49.797 21.056 49.3163 21.14 48.7843 21.14C48.2896 21.14 47.8323 21.056 47.4123 20.888C46.9923 20.7107 46.6283 20.454 46.3203 20.118C46.0123 19.782 45.7696 19.376 45.5923 18.9C45.4243 18.4147 45.3403 17.8593 45.3403 17.234C45.3403 16.4033 45.4803 15.7033 45.7603 15.134C46.0403 14.5553 46.4416 14.1167 46.9643 13.818C47.487 13.51 48.1076 13.356 48.8263 13.356C49.5076 13.356 50.105 13.51 50.6183 13.818C51.141 14.1167 51.547 14.5553 51.8363 15.134C52.135 15.7033 52.2843 16.4033 52.2843 17.234ZM46.6143 17.234C46.6143 17.822 46.689 18.3353 46.8383 18.774C46.997 19.2033 47.2396 19.5347 47.5663 19.768C47.893 20.0013 48.3083 20.118 48.8123 20.118C49.3163 20.118 49.7316 20.0013 50.0583 19.768C50.385 19.5347 50.623 19.2033 50.7723 18.774C50.931 18.3353 51.0103 17.822 51.0103 17.234C51.0103 16.6367 50.931 16.128 50.7723 15.708C50.6136 15.288 50.371 14.966 50.0443 14.742C49.727 14.5087 49.3116 14.392 48.7983 14.392C48.033 14.392 47.4776 14.644 47.1323 15.148C46.787 15.652 46.6143 16.3473 46.6143 17.234ZM59.1056 13.496V16.618H63.1796V13.496H64.4116V21H63.1796V17.654H59.1056V21H57.8736V13.496H59.1056ZM69.6297 13.37C70.5443 13.37 71.221 13.5707 71.6597 13.972C72.0983 14.3733 72.3177 15.0127 72.3177 15.89V21H71.4217L71.1837 19.936H71.1277C70.913 20.2067 70.689 20.4353 70.4557 20.622C70.2317 20.7993 69.9703 20.93 69.6717 21.014C69.3823 21.098 69.0277 21.14 68.6077 21.14C68.1597 21.14 67.7537 21.0607 67.3897 20.902C67.035 20.7433 66.755 20.5007 66.5497 20.174C66.3443 19.838 66.2417 19.418 66.2417 18.914C66.2417 18.1673 66.5357 17.5933 67.1237 17.192C67.7117 16.7813 68.617 16.5573 69.8397 16.52L71.1137 16.478V16.03C71.1137 15.4047 70.9783 14.9707 70.7077 14.728C70.437 14.4853 70.0543 14.364 69.5597 14.364C69.1677 14.364 68.7943 14.4247 68.4397 14.546C68.085 14.658 67.7537 14.7887 67.4457 14.938L67.0677 14.014C67.3943 13.8367 67.7817 13.6873 68.2297 13.566C68.6777 13.4353 69.1443 13.37 69.6297 13.37ZM69.9937 17.374C69.0603 17.4113 68.4117 17.5607 68.0477 17.822C67.693 18.0833 67.5157 18.452 67.5157 18.928C67.5157 19.348 67.6417 19.656 67.8937 19.852C68.155 20.048 68.4863 20.146 68.8877 20.146C69.5223 20.146 70.0497 19.9733 70.4697 19.628C70.8897 19.2733 71.0997 18.732 71.0997 18.004V17.332L69.9937 17.374ZM77.6453 21.14C76.9826 21.14 76.39 21.0047 75.8673 20.734C75.354 20.4633 74.948 20.0433 74.6493 19.474C74.36 18.9047 74.2153 18.1767 74.2153 17.29C74.2153 16.366 74.3693 15.6147 74.6773 15.036C74.9853 14.4573 75.4006 14.0327 75.9233 13.762C76.4553 13.4913 77.0573 13.356 77.7293 13.356C78.112 13.356 78.4806 13.398 78.8353 13.482C79.19 13.5567 79.4793 13.65 79.7033 13.762L79.3253 14.784C79.1013 14.7 78.84 14.6207 78.5413 14.546C78.2426 14.4713 77.9626 14.434 77.7013 14.434C77.1973 14.434 76.782 14.5413 76.4553 14.756C76.1286 14.9707 75.886 15.288 75.7273 15.708C75.5686 16.128 75.4893 16.6507 75.4893 17.276C75.4893 17.8733 75.5686 18.382 75.7273 18.802C75.886 19.222 76.124 19.5393 76.4413 19.754C76.7586 19.9687 77.1553 20.076 77.6313 20.076C78.042 20.076 78.4013 20.034 78.7093 19.95C79.0266 19.866 79.316 19.7633 79.5773 19.642V20.734C79.3253 20.8647 79.0453 20.9627 78.7373 21.028C78.4386 21.1027 78.0746 21.14 77.6453 21.14ZM89.5766 13.496V14.532H86.2306V21H84.9986V13.496H89.5766ZM97.4425 17.234C97.4425 17.8593 97.3585 18.4147 97.1905 18.9C97.0318 19.376 96.7985 19.782 96.4905 20.118C96.1918 20.454 95.8232 20.7107 95.3845 20.888C94.9552 21.056 94.4745 21.14 93.9425 21.14C93.4478 21.14 92.9905 21.056 92.5705 20.888C92.1505 20.7107 91.7865 20.454 91.4785 20.118C91.1705 19.782 90.9278 19.376 90.7505 18.9C90.5825 18.4147 90.4985 17.8593 90.4985 17.234C90.4985 16.4033 90.6385 15.7033 90.9185 15.134C91.1985 14.5553 91.5998 14.1167 92.1225 13.818C92.6452 13.51 93.2658 13.356 93.9845 13.356C94.6658 13.356 95.2632 13.51 95.7765 13.818C96.2992 14.1167 96.7052 14.5553 96.9945 15.134C97.2932 15.7033 97.4425 16.4033 97.4425 17.234ZM91.7725 17.234C91.7725 17.822 91.8472 18.3353 91.9965 18.774C92.1552 19.2033 92.3978 19.5347 92.7245 19.768C93.0512 20.0013 93.4665 20.118 93.9705 20.118C94.4745 20.118 94.8898 20.0013 95.2165 19.768C95.5432 19.5347 95.7812 19.2033 95.9305 18.774C96.0892 18.3353 96.1685 17.822 96.1685 17.234C96.1685 16.6367 96.0892 16.128 95.9305 15.708C95.7718 15.288 95.5292 14.966 95.2025 14.742C94.8852 14.5087 94.4698 14.392 93.9565 14.392C93.1912 14.392 92.6358 14.644 92.2905 15.148C91.9452 15.652 91.7725 16.3473 91.7725 17.234ZM105.429 15.386C105.429 15.8527 105.289 16.2167 105.009 16.478C104.729 16.7393 104.37 16.9167 103.931 17.01V17.066C104.398 17.1313 104.804 17.2993 105.149 17.57C105.494 17.8313 105.667 18.242 105.667 18.802C105.667 19.1193 105.606 19.4133 105.485 19.684C105.373 19.9547 105.196 20.188 104.953 20.384C104.71 20.58 104.398 20.734 104.015 20.846C103.632 20.9487 103.17 21 102.629 21H99.3951V13.496H102.615C103.147 13.496 103.623 13.5567 104.043 13.678C104.472 13.79 104.808 13.986 105.051 14.266C105.303 14.5367 105.429 14.91 105.429 15.386ZM104.393 18.802C104.393 18.3727 104.23 18.0647 103.903 17.878C103.576 17.6913 103.096 17.598 102.461 17.598H100.627V20.006H102.489C103.105 20.006 103.576 19.9173 103.903 19.74C104.23 19.5533 104.393 19.2407 104.393 18.802ZM104.183 15.54C104.183 15.1853 104.052 14.9287 103.791 14.77C103.539 14.602 103.124 14.518 102.545 14.518H100.627V16.576H102.321C102.928 16.576 103.39 16.492 103.707 16.324C104.024 16.156 104.183 15.8947 104.183 15.54ZM113.985 17.234C113.985 17.8593 113.901 18.4147 113.733 18.9C113.575 19.376 113.341 19.782 113.033 20.118C112.735 20.454 112.366 20.7107 111.927 20.888C111.498 21.056 111.017 21.14 110.485 21.14C109.991 21.14 109.533 21.056 109.113 20.888C108.693 20.7107 108.329 20.454 108.021 20.118C107.713 19.782 107.471 19.376 107.293 18.9C107.125 18.4147 107.041 17.8593 107.041 17.234C107.041 16.4033 107.181 15.7033 107.461 15.134C107.741 14.5553 108.143 14.1167 108.665 13.818C109.188 13.51 109.809 13.356 110.527 13.356C111.209 13.356 111.806 13.51 112.319 13.818C112.842 14.1167 113.248 14.5553 113.537 15.134C113.836 15.7033 113.985 16.4033 113.985 17.234ZM108.315 17.234C108.315 17.822 108.39 18.3353 108.539 18.774C108.698 19.2033 108.941 19.5347 109.267 19.768C109.594 20.0013 110.009 20.118 110.513 20.118C111.017 20.118 111.433 20.0013 111.759 19.768C112.086 19.5347 112.324 19.2033 112.473 18.774C112.632 18.3353 112.711 17.822 112.711 17.234C112.711 16.6367 112.632 16.128 112.473 15.708C112.315 15.288 112.072 14.966 111.745 14.742C111.428 14.5087 111.013 14.392 110.499 14.392C109.734 14.392 109.179 14.644 108.833 15.148C108.488 15.652 108.315 16.3473 108.315 17.234ZM119.508 13.356C120.432 13.356 121.174 13.678 121.734 14.322C122.303 14.966 122.588 15.9367 122.588 17.234C122.588 18.0833 122.457 18.802 122.196 19.39C121.944 19.9687 121.585 20.4073 121.118 20.706C120.661 20.9953 120.119 21.14 119.494 21.14C119.111 21.14 118.771 21.0887 118.472 20.986C118.173 20.8833 117.917 20.7527 117.702 20.594C117.497 20.426 117.319 20.244 117.17 20.048H117.086C117.105 20.2067 117.123 20.4073 117.142 20.65C117.161 20.8927 117.17 21.1027 117.17 21.28V24.36H115.938V13.496H116.946L117.114 14.518H117.17C117.319 14.3033 117.497 14.1073 117.702 13.93C117.917 13.7527 118.169 13.6127 118.458 13.51C118.757 13.4073 119.107 13.356 119.508 13.356ZM119.284 14.392C118.78 14.392 118.374 14.49 118.066 14.686C117.758 14.8727 117.534 15.1573 117.394 15.54C117.254 15.9227 117.179 16.408 117.17 16.996V17.234C117.17 17.85 117.235 18.3727 117.366 18.802C117.497 19.2313 117.716 19.558 118.024 19.782C118.341 20.006 118.771 20.118 119.312 20.118C119.769 20.118 120.143 19.992 120.432 19.74C120.731 19.488 120.95 19.1473 121.09 18.718C121.239 18.2793 121.314 17.78 121.314 17.22C121.314 16.3613 121.146 15.6753 120.81 15.162C120.483 14.6487 119.975 14.392 119.284 14.392ZM125.013 21H123.585L125.727 17.85C125.438 17.7753 125.158 17.6587 124.887 17.5C124.617 17.332 124.397 17.1033 124.229 16.814C124.061 16.5153 123.977 16.1467 123.977 15.708C123.977 14.9893 124.22 14.4433 124.705 14.07C125.191 13.6873 125.835 13.496 126.637 13.496H129.997V21H128.765V18.018H126.945L125.013 21ZM125.167 15.722C125.167 16.1513 125.326 16.4733 125.643 16.688C125.97 16.8933 126.423 16.996 127.001 16.996H128.765V14.518H126.763C126.194 14.518 125.783 14.63 125.531 14.854C125.289 15.078 125.167 15.3673 125.167 15.722ZM137.552 14.532H135.102V21H133.884V14.532H131.462V13.496H137.552V14.532Z" fill="#10141F"/>
<defs>
<linearGradient id="paint0_linear_66_1390" x1="4.25973" y1="-34.9286" x2="17.5969" y2="50.184" gradientUnits="userSpaceOnUse">
<stop stop-color="white"/>
<stop offset="1" stop-color="#CBD0DB"/>
</linearGradient>
</defs>
</svg>
