<svg width="20" height="21" viewBox="0 0 20 21" fill="none" xmlns="http://www.w3.org/2000/svg">
<path d="M10.0007 15.4997C7.23923 15.4997 5.00065 13.2611 5.00065 10.4997C5.00065 7.73825 7.23923 5.49967 10.0007 5.49967C12.7621 5.49967 15.0007 7.73825 15.0007 10.4997C15.0007 13.2611 12.7621 15.4997 10.0007 15.4997ZM9.16732 1.33301H10.834V3.83301H9.16732V1.33301ZM9.16732 17.1663H10.834V19.6663H9.16732V17.1663ZM2.92958 4.60712L4.10809 3.42861L5.87586 5.19637L4.69735 6.37488L2.92958 4.60712ZM14.1254 15.803L15.304 14.6244L17.0717 16.3923L15.8932 17.5708L14.1254 15.803ZM15.8932 3.42861L17.0717 4.60712L15.304 6.37488L14.1254 5.19637L15.8932 3.42861ZM4.69735 14.6244L5.87586 15.803L4.10809 17.5708L2.92958 16.3923L4.69735 14.6244ZM19.1673 9.66634V11.333H16.6673V9.66634H19.1673ZM3.33398 9.66634V11.333H0.833984V9.66634H3.33398Z" fill="#2765E0"/>
</svg>
