<svg width="13" height="13" viewBox="0 0 13 13" fill="none" xmlns="http://www.w3.org/2000/svg">
<path d="M6.768 12.984C3.248 12.984 0.736 10.488 0.736 6.952C0.736 3.416 3.248 0.903999 6.784 0.903999C10.096 0.903999 12.336 3.176 12.336 6.472C12.336 8.344 11.392 10.12 9.504 10.12C8.56 10.12 7.968 9.72 7.76 9.048C7.344 9.704 6.672 10.12 5.792 10.12C4.368 10.12 3.648 9.016 3.872 7.688L4.176 5.896C4.416 4.568 5.408 3.688 6.752 3.688C7.488 3.688 7.968 4.008 8.24 4.472L8.336 3.816H9.168L8.768 6.2C8.752 6.296 8.736 6.376 8.72 6.44L8.448 8.024C8.304 8.824 8.72 9.368 9.52 9.368C10.96 9.368 11.504 7.896 11.504 6.472C11.504 3.624 9.616 1.672 6.784 1.672C3.712 1.672 1.552 3.88 1.552 6.952C1.552 10.024 3.712 12.216 6.784 12.216C7.552 12.216 8.304 12.088 9.008 11.784L9.296 12.424C8.496 12.808 7.648 12.984 6.768 12.984ZM5.888 9.352C6.864 9.352 7.52 8.616 7.712 7.672L7.728 7.592L8 5.896C8.096 5.08 7.632 4.392 6.688 4.392C5.792 4.392 5.168 5 5.008 5.88L4.688 7.704C4.56 8.552 4.928 9.352 5.888 9.352Z" fill="#CBD0DB"/>
</svg>
