<svg width="80" height="80" viewBox="0 0 80 80" fill="none" xmlns="http://www.w3.org/2000/svg">
<rect x="0.5" y="0.5" width="79" height="79" rx="39.5" fill="#2765E0" fill-opacity="0.1"/>
<rect x="0.5" y="0.5" width="79" height="79" rx="39.5" stroke="#2765E0"/>
<path d="M50.666 41.9525C50.666 44.8979 49.4721 47.5646 47.5419 49.495L49.4275 51.3806C51.8403 48.9677 53.3327 45.6343 53.3327 41.9525C53.3327 34.5887 47.3631 28.6191 39.9993 28.6191C32.6355 28.6191 26.666 34.5887 26.666 41.9525C26.666 45.6343 28.1584 48.9677 30.5713 51.3806L32.4569 49.495C30.5266 47.5646 29.3327 44.8979 29.3327 41.9525C29.3327 36.0614 34.1083 31.2858 39.9993 31.2858C45.8904 31.2858 50.666 36.0614 50.666 41.9525ZM44.39 35.6764L37.9993 41.2858L40.666 43.9525L46.2756 37.562L44.39 35.6764Z" fill="#2765E0"/>
</svg>
