<svg width="58" height="58" viewBox="0 0 58 58" fill="none" xmlns="http://www.w3.org/2000/svg">
<g filter="url(#filter0_d_49_1478)">
<rect x="9" y="2" width="40" height="40" rx="20" fill="url(#paint0_linear_49_1478)" fill-opacity="0.15" shape-rendering="crispEdges"/>
<rect x="9.5" y="2.5" width="39" height="39" rx="19.5" stroke="url(#paint1_linear_49_1478)" stroke-opacity="0.3" shape-rendering="crispEdges"/>
<path d="M21 16.5C20.7239 16.5 20.5 16.7239 20.5 17C20.5 17.2761 20.7239 17.5 21 17.5V16.5ZM37.3536 17.3536C37.5488 17.1583 37.5488 16.8417 37.3536 16.6464L34.1716 13.4645C33.9763 13.2692 33.6597 13.2692 33.4645 13.4645C33.2692 13.6597 33.2692 13.9763 33.4645 14.1716L36.2929 17L33.4645 19.8284C33.2692 20.0237 33.2692 20.3403 33.4645 20.5355C33.6597 20.7308 33.9763 20.7308 34.1716 20.5355L37.3536 17.3536ZM21 17.5H37V16.5H21V17.5Z" fill="white"/>
<path d="M37 26.5C37.2761 26.5 37.5 26.7239 37.5 27C37.5 27.2761 37.2761 27.5 37 27.5V26.5ZM20.6464 27.3536C20.4512 27.1583 20.4512 26.8417 20.6464 26.6464L23.8284 23.4645C24.0237 23.2692 24.3403 23.2692 24.5355 23.4645C24.7308 23.6597 24.7308 23.9763 24.5355 24.1716L21.7071 27L24.5355 29.8284C24.7308 30.0237 24.7308 30.3403 24.5355 30.5355C24.3403 30.7308 24.0237 30.7308 23.8284 30.5355L20.6464 27.3536ZM37 27.5H21V26.5H37V27.5Z" fill="white"/>
</g>
<defs>
<filter id="filter0_d_49_1478" x="0.3" y="0.3" width="57.4" height="57.4" filterUnits="userSpaceOnUse" color-interpolation-filters="sRGB">
<feFlood flood-opacity="0" result="BackgroundImageFix"/>
<feColorMatrix in="SourceAlpha" type="matrix" values="0 0 0 0 0 0 0 0 0 0 0 0 0 0 0 0 0 0 127 0" result="hardAlpha"/>
<feOffset dy="7"/>
<feGaussianBlur stdDeviation="4.35"/>
<feComposite in2="hardAlpha" operator="out"/>
<feColorMatrix type="matrix" values="0 0 0 0 0.17995 0 0 0 0 0.221859 0 0 0 0 0.305 0 0 0 0.1 0"/>
<feBlend mode="normal" in2="BackgroundImageFix" result="effect1_dropShadow_49_1478"/>
<feBlend mode="normal" in="SourceGraphic" in2="effect1_dropShadow_49_1478" result="shape"/>
</filter>
<linearGradient id="paint0_linear_49_1478" x1="18.0909" y1="2" x2="51.6725" y2="16.7019" gradientUnits="userSpaceOnUse">
<stop stop-color="#85ADFF"/>
<stop offset="1" stop-color="#2765E0"/>
</linearGradient>
<linearGradient id="paint1_linear_49_1478" x1="46.8313" y1="42" x2="10.2302" y2="38.9362" gradientUnits="userSpaceOnUse">
<stop stop-color="#CBD0DB"/>
<stop offset="1" stop-color="#10141F"/>
</linearGradient>
</defs>
</svg>
