<svg width="80" height="80" viewBox="0 0 80 80" fill="none" xmlns="http://www.w3.org/2000/svg">
<rect x="0.5" y="0.5" width="79" height="79" rx="39.5" fill="#2765E0" fill-opacity="0.1"/>
<rect x="0.5" y="0.5" width="79" height="79" rx="39.5" stroke="#2765E0"/>
<path d="M40 25.3335L50.9559 27.7681C51.566 27.9037 52 28.4448 52 29.0697V42.3854C52 45.0602 50.6632 47.558 48.4376 49.0418L40 54.6668L31.5624 49.0418C29.3368 47.558 28 45.0602 28 42.3854V29.0697C28 28.4448 28.434 27.9037 29.0441 27.7681L40 25.3335ZM40 33.3335C38.5272 33.3335 37.3333 34.5274 37.3333 36.0002C37.3333 36.9872 37.8696 37.849 38.6665 38.31L38.6667 44.0002H41.3333L41.3348 38.3092C42.1311 37.8479 42.6667 36.9866 42.6667 36.0002C42.6667 34.5274 41.4728 33.3335 40 33.3335Z" fill="#2765E0"/>
</svg>
