<svg width="18" height="19" viewBox="0 0 18 19" fill="none" xmlns="http://www.w3.org/2000/svg">
<path d="M9.152 18.976C3.872 18.976 0.104 15.232 0.104 9.928C0.104 4.624 3.872 0.855999 9.176 0.855999C14.144 0.855999 17.504 4.264 17.504 9.208C17.504 12.016 16.088 14.68 13.256 14.68C11.84 14.68 10.952 14.08 10.64 13.072C10.016 14.056 9.008 14.68 7.688 14.68C5.552 14.68 4.472 13.024 4.808 11.032L5.264 8.344C5.624 6.352 7.112 5.032 9.128 5.032C10.232 5.032 10.952 5.512 11.36 6.208L11.504 5.224H12.752L12.152 8.8C12.128 8.944 12.104 9.064 12.08 9.16L11.672 11.536C11.456 12.736 12.08 13.552 13.28 13.552C15.44 13.552 16.256 11.344 16.256 9.208C16.256 4.936 13.424 2.008 9.176 2.008C4.568 2.008 1.328 5.32 1.328 9.928C1.328 14.536 4.568 17.824 9.176 17.824C10.328 17.824 11.456 17.632 12.512 17.176L12.944 18.136C11.744 18.712 10.472 18.976 9.152 18.976ZM7.832 13.528C9.296 13.528 10.28 12.424 10.568 11.008L10.592 10.888L11 8.344C11.144 7.12 10.448 6.088 9.032 6.088C7.688 6.088 6.752 7 6.512 8.32L6.032 11.056C5.84 12.328 6.392 13.528 7.832 13.528Z" fill="white"/>
</svg>
