<svg width="40" height="40" viewBox="0 0 40 40" fill="none" xmlns="http://www.w3.org/2000/svg">
<rect width="40" height="40" rx="20" fill="#2765E0" fill-opacity="0.1"/>
<path d="M13.6364 18.637H15.5455V26.5H13.6364C13.2849 26.5 13 26.2066 13 25.8448V19.2923C13 18.9304 13.2849 18.637 13.6364 18.637ZM17.0046 17.7899L21.0776 13.596C21.1896 13.4807 21.3668 13.4677 21.4935 13.5655L22.036 13.9845C22.3445 14.2227 22.4835 14.6286 22.3883 15.0133L21.6544 17.9818H25.7273C26.4302 17.9818 27 18.5685 27 19.2923V20.6711C27 20.8423 26.9674 21.0118 26.9042 21.1701L24.935 26.0942C24.8368 26.3397 24.6044 26.5 24.3466 26.5H17.4545C17.1031 26.5 16.8182 26.2066 16.8182 25.8448V18.2532C16.8182 18.0794 16.8852 17.9127 17.0046 17.7899Z" fill="white"/>
</svg>
