<svg width="12" height="15" viewBox="0 0 12 15" fill="none" xmlns="http://www.w3.org/2000/svg">
<path d="M10 5H11.3333C11.7015 5 12 5.3198 12 5.71429V14.2857C12 14.6802 11.7015 15 11.3333 15H0.666667C0.29848 15 0 14.6802 0 14.2857V5.71429C0 5.3198 0.29848 5 0.666667 5H2V4.28571C2 1.91878 3.79086 0 6 0C8.20913 0 10 1.91878 10 4.28571V5ZM5.33333 10.5231V12.1429H6.66667V10.5231C7.0652 10.2761 7.33333 9.8145 7.33333 9.28571C7.33333 8.49671 6.7364 7.85714 6 7.85714C5.2636 7.85714 4.66667 8.49671 4.66667 9.28571C4.66667 9.8145 4.9348 10.2761 5.33333 10.5231ZM8.66667 5V4.28571C8.66667 2.70776 7.47273 1.42857 6 1.42857C4.52724 1.42857 3.33333 2.70776 3.33333 4.28571V5H8.66667Z" fill="#CBD0DB"/>
</svg>
