<svg width="37" height="45" viewBox="0 0 37 45" fill="none" xmlns="http://www.w3.org/2000/svg">
<path d="M30.5483 14.5234C31.6588 13.5581 32.2902 12.1573 32.2902 10.6839V2.90331H35.1934C35.9918 2.90331 36.645 2.25007 36.645 1.45165C36.645 0.653239 35.9918 0 35.1935 0H32.2903H4.70958H1.80639C1.00797 0 0.354736 0.653239 0.354736 1.45165C0.354736 2.25007 1.00797 2.90331 1.80639 2.90331H4.70958V11.3953C4.70958 12.876 5.34832 14.284 6.47335 15.2493L12.9185 20.838C13.4048 21.259 13.6806 21.8541 13.6806 22.5001C13.6806 23.1461 13.412 23.7412 12.9185 24.1622L6.47335 29.7437C5.34832 30.7163 4.70958 32.1243 4.70958 33.6049V42.0969H1.80639C1.00797 42.0969 0.354736 42.7502 0.354736 43.5486C0.354736 44.347 1.00797 45.0002 1.80639 45.0002H4.70958H32.2902H35.1934C35.9918 45.0002 36.645 44.347 36.645 43.5486C36.645 42.7502 35.9918 42.0969 35.1934 42.0969H32.2902V34.3163C32.2902 32.8429 31.6515 31.4421 30.5483 30.4768L23.3193 24.155C22.833 23.7339 22.5718 23.1461 22.5718 22.5001C22.5718 21.8541 22.8403 21.2663 23.3193 20.8453L30.5483 14.5234ZM21.4103 26.3395L28.6394 32.6614C29.1184 33.0824 29.3869 33.6847 29.3869 34.3162V42.0968H7.61277V33.6048C7.61277 32.9661 7.88862 32.3637 8.36767 31.9427L14.8128 26.3613C15.9306 25.3887 16.5766 23.9879 16.5766 22.5073C16.5766 21.0266 15.9378 19.6186 14.8128 18.6532L8.36767 13.0645C7.88862 12.6435 7.61277 12.0339 7.61277 11.3952V2.90319H29.387V10.6838C29.387 11.3153 29.1112 11.9176 28.6321 12.3387L21.4031 18.6605C20.2998 19.6258 19.6612 21.0266 19.6612 22.5C19.6612 23.9734 20.2999 25.3742 21.4103 26.3395Z" fill="#2765E0"/>
<path d="M27.9354 10.6839V9.52261C27.9354 9.07257 27.5725 8.70969 27.1297 8.70969H9.87012C9.42734 8.70969 9.06445 9.07257 9.06445 9.51535V11.3952C9.06445 11.8234 9.25315 12.2299 9.57251 12.5057L15.9161 18.0073C16.7 18.6896 17.346 19.5388 17.6871 20.5186C18.5145 22.8702 17.7888 25.367 16.0177 26.8985L9.57263 32.4872C9.25327 32.7703 9.06457 33.1694 9.06457 33.5977V39.992C9.06457 40.3549 9.35492 40.6453 9.71056 40.6453H27.2896C27.6453 40.6453 27.9356 40.3549 27.9356 39.9993V34.3162C27.9356 33.8879 27.7542 33.4888 27.4348 33.2057L20.3292 26.9855C19.5525 26.3033 18.9139 25.4613 18.5654 24.4887C17.7307 22.1444 18.4493 19.6548 20.2058 18.1089L27.4348 11.7871C27.7539 11.5113 27.9354 11.1048 27.9354 10.6839Z" fill="#2765E0"/>
</svg>
