<svg width="388" height="484" viewBox="0 0 388 484" fill="none" xmlns="http://www.w3.org/2000/svg">
<g filter="url(#filter0_b_2266_600)">
<mask id="path-1-inside-1_2266_600" fill="white">
<path fill-rule="evenodd" clip-rule="evenodd" d="M189.133 11.475C191.139 4.67087 197.386 0 204.48 0H372C380.837 0 388 7.16344 388 16V60V468C388 476.837 380.837 484 372 484H16C7.16344 484 0 476.837 0 468V76C0 67.1634 7.16343 60 16 60H162.862C169.956 60 176.203 55.3291 178.209 48.525L189.133 11.475Z"/>
</mask>
<path fill-rule="evenodd" clip-rule="evenodd" d="M189.133 11.475C191.139 4.67087 197.386 0 204.48 0H372C380.837 0 388 7.16344 388 16V60V468C388 476.837 380.837 484 372 484H16C7.16344 484 0 476.837 0 468V76C0 67.1634 7.16343 60 16 60H162.862C169.956 60 176.203 55.3291 178.209 48.525L189.133 11.475Z" fill="white" fill-opacity="0.5"/>
<path d="M178.209 48.525L179.168 48.8078L178.209 48.525ZM189.133 11.475L188.174 11.1922L189.133 11.475ZM372 1H204.48V-1H372V1ZM387 60V16H389V60H387ZM387 468V60H389V468H387ZM16 483H372V485H16V483ZM1 76V468H-1V76H1ZM162.862 61H16V59H162.862V61ZM190.092 11.7579L179.168 48.8078L177.25 48.2422L188.174 11.1922L190.092 11.7579ZM162.862 59C169.513 59 175.369 54.6211 177.25 48.2422L179.168 48.8078C177.037 56.0372 170.399 61 162.862 61V59ZM16 485C6.61116 485 -1 477.389 -1 468H1C1 476.284 7.71573 483 16 483V485ZM389 468C389 477.389 381.389 485 372 485V483C380.284 483 387 476.284 387 468H389ZM204.48 1C197.829 1 191.973 5.37895 190.092 11.7579L188.174 11.1922C190.305 3.9628 196.943 -1 204.48 -1V1ZM-1 76C-1 66.6112 6.61115 59 16 59V61C7.71572 61 1 67.7157 1 76H-1ZM372 -1C381.389 -1 389 6.61116 389 16H387C387 7.71573 380.284 1 372 1V-1Z" fill="url(#paint0_linear_2266_600)" fill-opacity="0.8" mask="url(#path-1-inside-1_2266_600)"/>
</g>
<defs>
<filter id="filter0_b_2266_600" x="-10" y="-10" width="408" height="504" filterUnits="userSpaceOnUse" color-interpolation-filters="sRGB">
<feFlood flood-opacity="0" result="BackgroundImageFix"/>
<feGaussianBlur in="BackgroundImageFix" stdDeviation="5"/>
<feComposite in2="SourceAlpha" operator="in" result="effect1_backgroundBlur_2266_600"/>
<feBlend mode="normal" in="SourceGraphic" in2="effect1_backgroundBlur_2266_600" result="shape"/>
</filter>
<linearGradient id="paint0_linear_2266_600" x1="377.99" y1="10.1538" x2="35.6267" y2="55.1548" gradientUnits="userSpaceOnUse">
<stop stop-color="#CBD0DB"/>
<stop offset="1" stop-color="white"/>
</linearGradient>
</defs>
</svg>
