<svg width="717" height="370" viewBox="0 0 717 370" fill="none" xmlns="http://www.w3.org/2000/svg">
<g filter="url(#filter0_b_2242_599)">
<mask id="path-1-inside-1_2242_599" fill="white">
<path fill-rule="evenodd" clip-rule="evenodd" d="M357.551 8.45741C360.334 3.25092 365.758 0 371.661 0H700.467C709.303 0 716.467 7.16344 716.467 16V59.7666C716.467 59.8955 716.362 60 716.233 60V60C716.104 60 716 60.1045 716 60.2334V354C716 362.837 708.837 370 700 370H16C7.16344 370 0 362.837 0 354V76C0 67.1634 7.16346 60 16 60H320.409C326.313 60 331.737 56.7491 334.52 51.5426L357.551 8.45741Z"/>
</mask>
<path fill-rule="evenodd" clip-rule="evenodd" d="M357.551 8.45741C360.334 3.25092 365.758 0 371.661 0H700.467C709.303 0 716.467 7.16344 716.467 16V59.7666C716.467 59.8955 716.362 60 716.233 60V60C716.104 60 716 60.1045 716 60.2334V354C716 362.837 708.837 370 700 370H16C7.16344 370 0 362.837 0 354V76C0 67.1634 7.16346 60 16 60H320.409C326.313 60 331.737 56.7491 334.52 51.5426L357.551 8.45741Z" fill="white" fill-opacity="0.5"/>
<path d="M334.52 51.5426L335.402 52.014L334.52 51.5426ZM357.551 8.45741L356.669 7.986L357.551 8.45741ZM700.467 1H371.661V-1H700.467V1ZM715.467 59.7666V16H717.467V59.7666H715.467ZM715 354V60.2334H717V354H715ZM16 369H700V371H16V369ZM1 76V354H-1V76H1ZM320.409 61H16V59H320.409V61ZM358.432 8.92882L335.402 52.014L333.638 51.0712L356.669 7.986L358.432 8.92882ZM320.409 59C325.944 59 331.029 55.9523 333.638 51.0712L335.402 52.014C332.445 57.5459 326.682 61 320.409 61V59ZM-1 76C-1 66.6112 6.61117 59 16 59V61C7.71574 61 1 67.7157 1 76H-1ZM16 371C6.61116 371 -1 363.389 -1 354H1C1 362.284 7.71573 369 16 369V371ZM717 354C717 363.389 709.389 371 700 371V369C708.284 369 715 362.284 715 354H717ZM716.233 61C716.657 61 717 60.6567 717 60.2334H715C715 59.5523 715.552 59 716.233 59V61ZM717.467 59.7666C717.467 60.4478 716.915 61 716.233 61V59C715.81 59 715.467 59.3432 715.467 59.7666H717.467ZM371.661 1C366.127 1 361.042 4.04774 358.432 8.92882L356.669 7.986C359.626 2.4541 365.389 -1 371.661 -1V1ZM700.467 -1C709.856 -1 717.467 6.61116 717.467 16H715.467C715.467 7.71573 708.751 1 700.467 1V-1Z" fill="url(#paint0_linear_2242_599)" fill-opacity="0.8" mask="url(#path-1-inside-1_2242_599)"/>
</g>
<defs>
<filter id="filter0_b_2242_599" x="-10" y="-10" width="736.467" height="390" filterUnits="userSpaceOnUse" color-interpolation-filters="sRGB">
<feFlood flood-opacity="0" result="BackgroundImageFix"/>
<feGaussianBlur in="BackgroundImageFix" stdDeviation="5"/>
<feComposite in2="SourceAlpha" operator="in" result="effect1_backgroundBlur_2242_599"/>
<feBlend mode="normal" in="SourceGraphic" in2="effect1_backgroundBlur_2242_599" result="shape"/>
</filter>
<linearGradient id="paint0_linear_2242_599" x1="697.983" y1="7.7622" x2="113.758" y2="193.253" gradientUnits="userSpaceOnUse">
<stop stop-color="#CBD0DB"/>
<stop offset="1" stop-color="white"/>
</linearGradient>
</defs>
</svg>
