<svg width="390" height="233" viewBox="0 0 390 233" fill="none" xmlns="http://www.w3.org/2000/svg">
<g filter="url(#filter0_bd_66_1354)">
<mask id="path-1-inside-1_66_1354" fill="white">
<path fill-rule="evenodd" clip-rule="evenodd" d="M21 29C21 20.1634 28.1635 13 37 13H353C361.837 13 369 20.1634 369 29V188C369 196.837 361.837 204 353 204H37C28.1635 204 21 196.837 21 188V158.39C21 152.03 25.1591 146.561 29.4514 141.869C33.5187 137.422 36 131.501 36 125C36 118.499 33.5187 112.578 29.4514 108.131C25.1591 103.439 21 97.97 21 91.6104V29Z"/>
</mask>
<path fill-rule="evenodd" clip-rule="evenodd" d="M21 29C21 20.1634 28.1635 13 37 13H353C361.837 13 369 20.1634 369 29V188C369 196.837 361.837 204 353 204H37C28.1635 204 21 196.837 21 188V158.39C21 152.03 25.1591 146.561 29.4514 141.869C33.5187 137.422 36 131.501 36 125C36 118.499 33.5187 112.578 29.4514 108.131C25.1591 103.439 21 97.97 21 91.6104V29Z" fill="white" fill-opacity="0.5" shape-rendering="crispEdges"/>
<path d="M29.4514 108.131L28.7136 108.806L29.4514 108.131ZM29.4514 141.869L28.7136 141.194L29.4514 141.869ZM353 14H37V12H353V14ZM368 188V29H370V188H368ZM37 203H353V205H37V203ZM22 158.39V188H20V158.39H22ZM28.7136 141.194C32.6188 136.924 35 131.241 35 125H37C37 131.76 34.4185 137.92 30.1893 142.544L28.7136 141.194ZM35 125C35 118.759 32.6188 113.076 28.7136 108.806L30.1893 107.456C34.4185 112.08 37 118.24 37 125H35ZM22 29V91.6104H20V29H22ZM28.7136 108.806C24.4251 104.118 20 98.3924 20 91.6104H22C22 97.5476 25.893 102.76 30.1893 107.456L28.7136 108.806ZM20 158.39C20 151.608 24.4251 145.882 28.7136 141.194L30.1893 142.544C25.893 147.24 22 152.452 22 158.39H20ZM37 205C27.6111 205 20 197.389 20 188H22C22 196.284 28.7157 203 37 203V205ZM370 188C370 197.389 362.389 205 353 205V203C361.284 203 368 196.284 368 188H370ZM37 14C28.7157 14 22 20.7157 22 29H20C20 19.6112 27.6111 12 37 12V14ZM353 12C362.389 12 370 19.6112 370 29H368C368 20.7157 361.284 14 353 14V12Z" fill="url(#paint0_linear_66_1354)" fill-opacity="0.8" mask="url(#path-1-inside-1_66_1354)"/>
</g>
<defs>
<filter id="filter0_bd_66_1354" x="0.4" y="0.4" width="389.2" height="232.2" filterUnits="userSpaceOnUse" color-interpolation-filters="sRGB">
<feFlood flood-opacity="0" result="BackgroundImageFix"/>
<feGaussianBlur in="BackgroundImageFix" stdDeviation="6"/>
<feComposite in2="SourceAlpha" operator="in" result="effect1_backgroundBlur_66_1354"/>
<feColorMatrix in="SourceAlpha" type="matrix" values="0 0 0 0 0 0 0 0 0 0 0 0 0 0 0 0 0 0 127 0" result="hardAlpha"/>
<feOffset dy="8"/>
<feGaussianBlur stdDeviation="10.3"/>
<feComposite in2="hardAlpha" operator="out"/>
<feColorMatrix type="matrix" values="0 0 0 0 0.0627451 0 0 0 0 0.0784314 0 0 0 0 0.121569 0 0 0 0.06 0"/>
<feBlend mode="normal" in2="effect1_backgroundBlur_66_1354" result="effect2_dropShadow_66_1354"/>
<feBlend mode="normal" in="SourceGraphic" in2="effect2_dropShadow_66_1354" result="shape"/>
</filter>
<linearGradient id="paint0_linear_66_1354" x1="360.022" y1="17.007" x2="73.2426" y2="102.68" gradientUnits="userSpaceOnUse">
<stop stop-color="#CBD0DB"/>
<stop offset="1" stop-color="white"/>
</linearGradient>
</defs>
</svg>
